HIERARCHY
ROOT Hips
{
	OFFSET 0.000000 0.000000 0.000000
	CHANNELS 6 Xposition Yposition Zposition Zrotation Yrotation Xrotation 
	JOINT LHipJoint
	{
		OFFSET 0.000000 0.000000 0.000000
		CHANNELS 3 Zrotation Yrotation Xrotation
		JOINT LeftUpLeg
		{
			OFFSET 1.363060 -1.794630 0.839290
			CHANNELS 3 Zrotation Yrotation Xrotation
			JOINT LeftLeg
			{
				OFFSET 2.448110 -6.726130 0.000000
				CHANNELS 3 Zrotation Yrotation Xrotation
				JOINT LeftFoot
				{
					OFFSET 2.562200 -7.039590 0.000000
					CHANNELS 3 Zrotation Yrotation Xrotation
					JOINT LeftToeBase
					{
						OFFSET 0.157640 -0.433110 2.322550
						CHANNELS 3 Zrotation Yrotation Xrotation
						End Site
						{
							OFFSET 0.000000 0.000000 0.000000
						}
					}
				}
			}
		}
	}
	JOINT RHipJoint
	{
		OFFSET 0.000000 0.000000 0.000000
		CHANNELS 3 Zrotation Yrotation Xrotation
		JOINT RightUpLeg
		{
			OFFSET -1.305520 -1.794630 0.839290
			CHANNELS 3 Zrotation Yrotation Xrotation
			JOINT RightLeg
			{
				OFFSET -2.542530 -6.985550 0.000000
				CHANNELS 3 Zrotation Yrotation Xrotation
				JOINT RightFoot
				{
					OFFSET -2.568260 -7.056230 0.000000
					CHANNELS 3 Zrotation Yrotation Xrotation
					JOINT RightToeBase
					{
						OFFSET -0.164730 -0.452590 2.363150
						CHANNELS 3 Zrotation Yrotation Xrotation
						End Site
						{
							OFFSET 0.000000 0.000000 0.000000
						}
					}
				}
			}
		}
	}
	JOINT LowerBack
	{
		OFFSET 0.000000 0.000000 0.000000
		CHANNELS 3 Zrotation Yrotation Xrotation
		JOINT Spine
		{
			OFFSET 0.028270 2.035590 -0.193380
			CHANNELS 3 Zrotation Yrotation Xrotation
			JOINT Spine1
			{
				OFFSET 0.056720 2.048850 -0.042750
				CHANNELS 3 Zrotation Yrotation Xrotation
				JOINT Neck
				{
					OFFSET 0.000000 0.000000 0.000000
					CHANNELS 3 Zrotation Yrotation Xrotation
					JOINT Neck1
					{
						OFFSET -0.054170 1.746240 0.172020
						CHANNELS 3 Zrotation Yrotation Xrotation
						JOINT Head
						{
							OFFSET 0.104070 1.761360 -0.123970
							CHANNELS 3 Zrotation Yrotation Xrotation
							End Site
							{
								OFFSET 0.000000 0.000000 0.000000
							}
						}
					}
				}
				JOINT LeftShoulder
				{
					OFFSET 0.000000 0.000000 0.000000
					CHANNELS 3 Zrotation Yrotation Xrotation
					JOINT LeftArm
					{
						OFFSET 3.362410 1.200890 -0.311210
						CHANNELS 3 Zrotation Yrotation Xrotation
						JOINT LeftForeArm
						{
							OFFSET 4.983000 -0.000000 -0.000000
							CHANNELS 3 Zrotation Yrotation Xrotation
							JOINT LeftHand
							{
								OFFSET 3.483560 -0.000000 -0.000000
								CHANNELS 3 Zrotation Yrotation Xrotation
								JOINT LeftFingerBase
								{
									OFFSET 0.000000 0.000000 0.000000
									CHANNELS 3 Zrotation Yrotation Xrotation
									JOINT LeftHandIndex1
									{
										OFFSET 0.715260 -0.000000 -0.000000
										CHANNELS 3 Zrotation Yrotation Xrotation
										End Site
										{
											OFFSET 0.000000 0.000000 0.000000
										}
									}
								}
								JOINT LThumb
								{
									OFFSET 0.000000 0.000000 0.000000
									CHANNELS 3 Zrotation Yrotation Xrotation
									End Site
									{
										OFFSET 0.000000 0.000000 0.000000
									}
								}
							}
						}
					}
				}
				JOINT RightShoulder
				{
					OFFSET 0.000000 0.000000 0.000000
					CHANNELS 3 Zrotation Yrotation Xrotation
					JOINT RightArm
					{
						OFFSET -3.136600 1.374050 -0.404650
						CHANNELS 3 Zrotation Yrotation Xrotation
						JOINT RightForeArm
						{
							OFFSET -5.241900 -0.000000 -0.000000
							CHANNELS 3 Zrotation Yrotation Xrotation
							JOINT RightHand
							{
								OFFSET -3.444170 -0.000000 -0.000000
								CHANNELS 3 Zrotation Yrotation Xrotation
								JOINT RightFingerBase
								{
									OFFSET 0.000000 0.000000 0.000000
									CHANNELS 3 Zrotation Yrotation Xrotation
									JOINT RightHandIndex1
									{
										OFFSET -0.622530 -0.000000 -0.000000
										CHANNELS 3 Zrotation Yrotation Xrotation
										End Site
										{
											OFFSET 0.000000 0.000000 0.000000
										}
									}
								}
								JOINT RThumb
								{
									OFFSET 0.000000 0.000000 0.000000
									CHANNELS 3 Zrotation Yrotation Xrotation
									End Site
									{
										OFFSET 0.000000 0.000000 0.000000
									}
								}
							}
						}
					}
				}
			}
		}
	}
}
MOTION
Frames: 11
Frame Time: 0.008333
6.212477 17.724944 -20.116859 -6.861415 -5.546553 9.875943 1.589449 -0.371919 -1.180591 -11.673719 -3.067477 -9.953373 0.508636 5.392220 14.432921 -0.421117 6.589294 -4.355025 0.079000 -1.812800 -4.988600 -1.691050 0.526740 -1.345472 22.483200 7.570148 -9.145980 -0.631131 -4.910579 12.511167 1.707203 -10.979871 -0.946046 -0.004300 -0.423800 1.164400 4.084742 -0.854938 4.594173 3.786829 -0.671026 -2.226900 2.526199 -0.536984 -1.826744 -19.652055 -17.605780 -0.096966 16.743103 -22.754754 -0.551848 7.365000 -11.374500 6.190800 -1.413231 -1.290733 1.145780 -81.418839 2.793598 47.414165 65.565918 -60.043507 -33.916262 -1.950639 2.317116 -27.217061 15.217752 44.410110 10.663200 -7.125000 0.000000 0.000000 -30.367300 70.082200 -18.780400 1.736976 2.057398 0.503852 71.793287 0.295173 53.679461 -61.673219 59.529398 -29.504822 1.302740 -0.682240 -34.113027 -5.300754 -19.512543 1.879800 7.125000 0.000000 0.000000 20.942300 -47.117200 -1.142500 
6.219353 17.725239 -20.121770 -6.857184 -5.572439 9.897601 1.591052 -0.371289 -1.181206 -11.704519 -3.067888 -10.003193 0.510243 5.401247 14.455011 -0.422204 6.602275 -4.344599 0.082900 -1.857600 -5.112400 -1.690756 0.528077 -1.347574 22.448904 7.553525 -9.172311 -0.626881 -4.889492 12.452255 1.701507 -10.954917 -0.926112 -0.005600 -0.481700 1.323500 4.049123 -0.834569 4.665694 3.773484 -0.641832 -2.186086 2.531277 -0.522367 -1.806053 -19.850248 -17.583277 -0.122665 16.927592 -22.722438 -0.540479 7.459900 -11.355600 6.246200 -1.413709 -1.283627 1.148072 -81.391757 2.663533 47.456483 65.428343 -60.013104 -33.807020 -1.945978 2.317531 -27.127924 15.146394 44.306281 10.593800 -7.125000 0.000000 0.000000 -30.279000 69.978800 -18.654500 1.731985 2.060758 0.509483 71.795280 0.420581 53.681141 -61.546998 59.497249 -29.412893 1.306293 -0.677304 -34.108645 -5.178489 -19.545226 1.846600 7.125000 0.000000 0.000000 21.061900 -47.135000 -1.159300 
6.225344 17.726024 -20.125503 -6.886798 -5.616611 9.922980 1.589718 -0.371676 -1.179146 -11.689270 -3.165018 -9.995331 0.508625 5.400769 14.452252 -0.434530 6.731765 -4.374540 0.078100 -1.803300 -4.962300 -1.692338 0.526223 -1.345147 22.456082 7.546344 -9.199082 -0.623384 -4.872422 12.403957 1.692912 -10.921395 -0.857079 -0.005400 -0.475700 1.307000 4.025934 -0.860950 4.761131 3.812506 -0.670045 -2.228761 2.602168 -0.535528 -1.918519 -19.758400 -17.599260 -0.059238 16.724049 -22.737884 -0.621269 7.377100 -11.371200 6.166400 -1.407883 -1.294643 1.149404 -81.484480 2.788976 47.354777 65.405599 -60.008864 -33.772043 -1.927346 2.321863 -27.081892 15.311949 43.915409 10.615100 -7.125000 0.000000 0.000000 -29.461800 69.712300 -17.950300 1.741014 2.058553 0.501430 71.684093 0.315297 53.875715 -61.509041 59.489185 -29.383500 1.305042 -0.677249 -34.076441 -5.191360 -19.580400 1.854100 7.125000 0.000000 0.000000 21.065700 -47.170300 -1.178600 
6.231139 17.726810 -20.128155 -6.876595 -5.626208 9.943581 1.592339 -0.371454 -1.181139 -11.721236 -3.148091 -10.037122 0.508894 5.401819 14.452655 -0.431584 6.702048 -4.351388 0.078300 -1.804900 -4.966800 -1.691162 0.527718 -1.348545 22.420206 7.522327 -9.214009 -0.620221 -4.855897 12.356517 1.689165 -10.912518 -0.784626 -0.004700 -0.442600 1.216200 4.031660 -0.831005 4.767690 3.769416 -0.632226 -2.164015 2.531013 -0.517030 -1.829215 -19.804068 -17.576152 -0.045268 16.841708 -22.703354 -0.674719 7.433900 -11.353500 6.161000 -1.409440 -1.285782 1.149952 -81.390273 2.629530 47.398443 65.326240 -59.993632 -33.733691 -1.954234 2.310510 -27.102872 14.927234 44.321755 10.455800 -7.125000 0.000000 0.000000 -30.550900 69.928400 -18.799200 1.732924 2.057236 0.507979 71.762868 0.467551 53.810613 -61.342281 59.447687 -29.258385 1.298581 -0.679732 -34.029806 -5.154025 -19.444782 1.827500 7.125000 0.000000 0.000000 21.048700 -47.040600 -1.107400 
6.236149 17.727694 -20.131985 -6.879941 -5.635696 9.975995 1.593547 -0.371274 -1.181469 -11.731914 -3.175545 -10.074824 0.508112 5.400613 14.446662 -0.433293 6.720692 -4.337250 0.077800 -1.799000 -4.950400 -1.691170 0.528102 -1.349579 22.401274 7.514536 -9.245695 -0.617051 -4.839910 12.310515 1.686773 -10.907584 -0.735446 -0.004600 -0.439900 1.208800 4.014583 -0.822537 4.802861 3.758959 -0.620270 -2.138544 2.523458 -0.510779 -1.812309 -19.838604 -17.565160 -0.011601 16.878976 -22.685469 -0.734226 7.458300 -11.347000 6.139700 -1.408278 -1.282815 1.151075 -81.368737 2.556193 47.386952 65.247022 -59.981819 -33.690894 -1.974539 2.303213 -27.110575 14.625166 44.623639 10.323900 -7.125000 0.000000 0.000000 -31.389200 70.079700 -19.451700 1.730674 2.056368 0.509945 71.771820 0.537065 53.832090 -61.217855 59.417123 -29.166464 1.296513 -0.680308 -33.984382 -5.111971 -19.409511 1.810700 7.125000 0.000000 0.000000 21.073400 -47.003600 -1.088800 
6.240274 17.728578 -20.136012 -6.882081 -5.641239 10.015929 1.594538 -0.371005 -1.181769 -11.739113 -3.200988 -10.121215 0.506923 5.397604 14.435237 -0.434313 6.732045 -4.315700 0.077500 -1.795600 -4.941100 -1.691515 0.528529 -1.350304 22.383137 7.519437 -9.291906 -0.615237 -4.830404 12.282617 1.685874 -10.908286 -0.700204 -0.004700 -0.442000 1.214500 3.981506 -0.812481 4.824905 3.754871 -0.607849 -2.111506 2.532212 -0.503886 -1.788381 -19.861310 -17.532645 0.085214 16.913791 -22.641271 -0.841781 7.490900 -11.331700 6.082400 -1.405450 -1.278626 1.152168 -81.358527 2.468747 47.369211 65.146165 -59.969842 -33.640183 -2.000750 2.296991 -27.137581 14.276432 45.072516 10.188200 -7.125000 0.000000 0.000000 -32.543700 70.326800 -20.390100 1.729999 2.054828 0.511394 71.770637 0.609966 53.852884 -61.086182 59.383784 -29.070163 1.293318 -0.681006 -33.939374 -5.074439 -19.360199 1.793800 7.125000 0.000000 0.000000 21.089300 -46.954300 -1.062900 
6.243712 17.729659 -20.140727 -6.879348 -5.627422 10.063515 1.595656 -0.370700 -1.181869 -11.746058 -3.228403 -10.187403 0.506353 5.396144 14.427919 -0.433340 6.722065 -4.287009 0.077700 -1.797600 -4.946600 -1.691839 0.528944 -1.351103 22.362188 7.523293 -9.348064 -0.613457 -4.821231 12.255308 1.687726 -10.921280 -0.672632 -0.004900 -0.450500 1.237900 3.943646 -0.803016 4.838494 3.749169 -0.597008 -2.082365 2.541365 -0.497654 -1.755621 -19.879048 -17.510586 0.148475 16.942042 -22.609228 -0.927971 7.515200 -11.320200 6.039500 -1.402972 -1.274427 1.153266 -81.343297 2.358386 47.359236 65.031346 -59.955250 -33.581301 -2.030682 2.288746 -27.178335 13.865122 45.564062 10.015600 -7.125000 0.000000 0.000000 -33.869800 70.581300 -21.466600 1.728345 2.052648 0.513156 71.775639 0.697770 53.857182 -60.945411 59.347560 -28.968057 1.290313 -0.682220 -33.894358 -5.039434 -19.312545 1.777700 7.125000 0.000000 0.000000 21.103500 -46.906400 -1.037700 
6.246659 17.730641 -20.145835 -6.874916 -5.604692 10.115492 1.596570 -0.370365 -1.181686 -11.751002 -3.255369 -10.264299 0.505991 5.395032 14.421305 -0.431267 6.701695 -4.255769 0.077800 -1.799300 -4.951300 -1.692312 0.529189 -1.351581 22.341556 7.527552 -9.414924 -0.612256 -4.814823 12.235715 1.690388 -10.937342 -0.653872 -0.005200 -0.464700 1.276800 3.898262 -0.796172 4.849238 3.747950 -0.589898 -2.056980 2.561861 -0.493007 -1.726276 -19.894238 -17.493137 0.200025 16.952762 -22.583255 -1.000585 7.530600 -11.311200 6.001800 -1.400166 -1.271061 1.154498 -81.338766 2.249819 47.346382 64.910866 -59.938474 -33.513418 -2.057165 2.280417 -27.223779 13.481915 45.963662 9.839000 -7.125000 0.000000 0.000000 -35.022900 70.767300 -22.392500 1.727136 2.050123 0.514320 71.771438 0.781626 53.866476 -60.804979 59.310415 -28.866254 1.286282 -0.683454 -33.857542 -5.012585 -19.250841 1.762700 7.125000 0.000000 0.000000 21.105500 -46.846600 -1.005400 
6.249311 17.731525 -20.151041 -6.868344 -5.572377 10.167586 1.597530 -0.370093 -1.181283 -11.756250 -3.287088 -10.345802 0.505876 5.395020 14.417911 -0.428757 6.676561 -4.224716 0.077900 -1.800600 -4.954800 -1.692625 0.529207 -1.351856 22.319967 7.524932 -9.486797 -0.611440 -4.810322 12.221379 1.693051 -10.953056 -0.637559 -0.005500 -0.478900 1.315900 3.855194 -0.788229 4.867392 3.744469 -0.580603 -2.035519 2.578364 -0.487456 -1.704129 -19.883560 -17.490591 0.197254 16.926179 -22.574317 -1.027211 7.521200 -11.307400 5.984900 -1.397913 -1.269506 1.155401 -81.328357 2.138309 47.346715 64.785218 -59.918229 -33.435105 -2.080274 2.270739 -27.278691 13.123804 46.252122 9.655200 -7.125000 0.000000 0.000000 -35.955500 70.873700 -23.117600 1.725184 2.046927 0.514969 71.771049 0.862481 53.867228 -60.664570 59.272593 -28.764732 1.281397 -0.685876 -33.833998 -5.009099 -19.176797 1.753200 7.125000 0.000000 0.000000 21.082900 -46.777600 -0.966800 
6.251668 17.732311 -20.156050 -6.862369 -5.537745 10.215327 1.598487 -0.369864 -1.180696 -11.760538 -3.324631 -10.421963 0.506090 5.396434 14.418739 -0.426831 6.657731 -4.199428 0.077800 -1.799100 -4.950900 -1.692757 0.529025 -1.351912 22.300413 7.515702 -9.557077 -0.610806 -4.806478 12.209353 1.694850 -10.965091 -0.618978 -0.005700 -0.489400 1.344700 3.818246 -0.780156 4.898677 3.739243 -0.570070 -2.020045 2.590363 -0.481464 -1.696227 -19.875298 -17.497297 0.160502 16.884233 -22.577489 -1.015520 7.501300 -11.307600 5.988600 -1.396164 -1.269409 1.156135 -81.316649 2.038200 47.356840 64.665501 -59.895468 -33.350375 -2.095285 2.261275 -27.333764 12.861172 46.351678 9.498900 -7.125000 0.000000 0.000000 -36.428900 70.868100 -23.442800 1.722671 2.043982 0.515338 71.772889 0.933491 53.868284 -60.527258 59.235368 -28.665126 1.275890 -0.688986 -33.827963 -5.024202 -19.092957 1.748000 7.125000 0.000000 0.000000 21.040700 -46.701200 -0.923300 
6.253632 17.732900 -20.160765 -6.861030 -5.510494 10.258628 1.599448 -0.369661 -1.180041 -11.759194 -3.371174 -10.486982 0.506525 5.399345 14.424084 -0.426700 6.658560 -4.181302 0.077800 -1.799200 -4.951100 -1.692765 0.528713 -1.351566 22.287719 7.509409 -9.623800 -0.610510 -4.804451 12.202281 1.696078 -10.973985 -0.601426 -0.005900 -0.495200 1.360700 3.786233 -0.767283 4.942741 3.731785 -0.551870 -2.010611 2.598037 -0.471804 -1.701954 -19.872180 -17.515006 0.074155 16.831705 -22.595010 -0.947759 7.471000 -11.311800 6.023500 -1.395587 -1.270721 1.156488 -81.296511 1.952033 47.378204 64.559448 -59.873299 -33.270971 -2.107453 2.250903 -27.397658 12.635719 46.371941 9.353100 -7.125000 0.000000 0.000000 -36.710600 70.816000 -23.599000 1.719301 2.041583 0.515624 71.780600 0.993174 53.866388 -60.395871 59.199240 -28.568421 1.269782 -0.690679 -33.839636 -5.026533 -18.989702 1.737200 7.125000 0.000000 0.000000 21.002800 -46.606300 -0.870200 
